<svg display="none">
  <symbol id="card-checklist" viewBox="0 0 16 16">
    <path fill-rule="evenodd" d="M14.5 3h-13a.5.5 0 00-.5.5v9a.5.5 0 00.5.5h13a.5.5 0 00.5-.5v-9a.5.5 0 00-.5-.5zm-13-1A1.5 1.5 0 000 3.5v9A1.5 1.5 0 001.5 14h13a1.5 1.5 0 001.5-1.5v-9A1.5 1.5 0 0014.5 2h-13z" clip-rule="evenodd"/>
    <path fill-rule="evenodd" d="M7 5.5a.5.5 0 01.5-.5h5a.5.5 0 010 1h-5a.5.5 0 01-.5-.5zm-1.496-.854a.5.5 0 010 .708l-1.5 1.5a.5.5 0 01-.708 0l-.5-.5a.5.5 0 11.708-.708l.146.147 1.146-1.147a.5.5 0 01.708 0zM7 9.5a.5.5 0 01.5-.5h5a.5.5 0 010 1h-5a.5.5 0 01-.5-.5zm-1.496-.854a.5.5 0 010 .708l-1.5 1.5a.5.5 0 01-.708 0l-.5-.5a.5.5 0 01.708-.708l.146.147 1.146-1.147a.5.5 0 01.708 0z" clip-rule="evenodd"/>
  </symbol>
  <symbol id="graph-up" viewBox="0 0 16 16">
    <path d="M0 0h1v16H0V0zm1 15h15v1H1v-1z"/>
    <path fill-rule="evenodd" d="M14.39 4.312L10.041 9.75 7 6.707l-3.646 3.647-.708-.708L7 5.293 9.959 8.25l3.65-4.563.781.624z" clip-rule="evenodd"/>
    <path fill-rule="evenodd" d="M10 3.5a.5.5 0 01.5-.5h4a.5.5 0 01.5.5v4a.5.5 0 01-1 0V4h-3.5a.5.5 0 01-.5-.5z" clip-rule="evenodd"/>
  </symbol>
  <symbol id="house" viewBox="0 0 16 16">
    <path fill-rule="evenodd" d="M2 13.5V7h1v6.5a.5.5 0 00.5.5h9a.5.5 0 00.5-.5V7h1v6.5a1.5 1.5 0 01-1.5 1.5h-9A1.5 1.5 0 012 13.5zm11-11V6l-2-2V2.5a.5.5 0 01.5-.5h1a.5.5 0 01.5.5z" clip-rule="evenodd"/>
    <path fill-rule="evenodd" d="M7.293 1.5a1 1 0 011.414 0l6.647 6.646a.5.5 0 01-.708.708L8 2.207 1.354 8.854a.5.5 0 11-.708-.708L7.293 1.5z" clip-rule="evenodd"/>
  </symbol>
  <symbol id="gear" viewBox="0 0 16 16">
    <path fill-rule="evenodd" d="M8.837 1.626c-.246-.835-1.428-.835-1.674 0l-.094.319A1.873 1.873 0 014.377 3.06l-.292-.16c-.764-.415-1.6.42-1.184 1.185l.159.292a1.873 1.873 0 01-1.115 2.692l-.319.094c-.835.246-.835 1.428 0 1.674l.319.094a1.873 1.873 0 011.115 2.693l-.16.291c-.415.764.42 1.6 1.185 1.184l.292-.159a1.873 1.873 0 012.692 1.116l.094.318c.246.835 1.428.835 1.674 0l.094-.319a1.873 1.873 0 012.693-1.115l.291.16c.764.415 1.6-.42 1.184-1.185l-.159-.291a1.873 1.873 0 011.116-2.693l.318-.094c.835-.246.835-1.428 0-1.674l-.319-.094a1.873 1.873 0 01-1.115-2.692l.16-.292c.415-.764-.42-1.6-1.185-1.184l-.291.159A1.873 1.873 0 018.93 1.945l-.094-.319zm-2.633-.283c.527-1.79 3.065-1.79 3.592 0l.094.319a.873.873 0 001.255.52l.292-.16c1.64-.892 3.434.901 2.54 2.541l-.159.292a.873.873 0 00.52 1.255l.319.094c1.79.527 1.79 3.065 0 3.592l-.319.094a.873.873 0 00-.52 1.255l.16.292c.893 1.64-.902 3.434-2.541 2.54l-.292-.159a.873.873 0 00-1.255.52l-.094.319c-.527 1.79-3.065 1.79-3.592 0l-.094-.319a.873.873 0 00-1.255-.52l-.292.16c-1.64.893-3.433-.902-2.54-2.541l.159-.292a.873.873 0 00-.52-1.255l-.319-.094c-1.79-.527-1.79-3.065 0-3.592l.319-.094a.873.873 0 00.52-1.255l-.16-.292c-.892-1.64.902-3.433 2.541-2.54l.292.159a.873.873 0 001.255-.52l.094-.319z" clip-rule="evenodd"/>
    <path fill-rule="evenodd" d="M8 5.754a2.246 2.246 0 100 4.492 2.246 2.246 0 000-4.492zM4.754 8a3.246 3.246 0 116.492 0 3.246 3.246 0 01-6.492 0z" clip-rule="evenodd"/>
  </symbol>
</svg>
