<svg display="none">
  <symbol id="flag" viewBox="0 0 16 16">
    <path fill-rule="evenodd" d="M3.5 1a.5.5 0 01.5.5v13a.5.5 0 01-1 0v-13a.5.5 0 01.5-.5z" clip-rule="evenodd"/>
    <path fill-rule="evenodd" d="M3.762 2.558C4.735 1.909 5.348 1.5 6.5 1.5c.653 0 1.139.325 1.495.562l.032.022c.391.26.646.416.973.416.168 0 .356-.042.587-.126a8.89 8.89 0 00.593-.25c.058-.027.117-.053.18-.08.57-.255 1.278-.544 2.14-.544a.5.5 0 01.5.5v6a.5.5 0 01-.5.5c-.638 0-1.18.21-1.734.457l-.159.07c-.22.1-.453.205-.678.287A2.719 2.719 0 019 9.5c-.653 0-1.139-.325-1.495-.562l-.032-.022c-.391-.26-.646-.416-.973-.416-.833 0-1.218.246-2.223.916a.5.5 0 11-.515-.858C4.735 7.909 5.348 7.5 6.5 7.5c.653 0 1.139.325 1.495.562l.032.022c.391.26.646.416.973.416.168 0 .356-.042.587-.126.187-.068.376-.153.593-.25.058-.027.117-.053.18-.08.456-.204 1-.43 1.64-.512V2.543c-.433.074-.83.234-1.234.414l-.159.07c-.22.1-.453.205-.678.287A2.719 2.719 0 019 3.5c-.653 0-1.139-.325-1.495-.562l-.032-.022c-.391-.26-.646-.416-.973-.416-.833 0-1.218.246-2.223.916a.5.5 0 01-.554-.832l.04-.026z" clip-rule="evenodd"/>
  </symbol>
  <symbol id="list" viewBox="0 0 16 16">
    <path fill-rule="evenodd" d="M2.5 11.5A.5.5 0 013 11h10a.5.5 0 010 1H3a.5.5 0 01-.5-.5zm0-4A.5.5 0 013 7h10a.5.5 0 010 1H3a.5.5 0 01-.5-.5zm0-4A.5.5 0 013 3h10a.5.5 0 010 1H3a.5.5 0 01-.5-.5z" clip-rule="evenodd"/>
  </symbol>
  <symbol id="star-fill" viewBox="0 0 16 16">
    <path d="M3.612 15.443c-.386.198-.824-.149-.746-.592l.83-4.73L.173 6.765c-.329-.314-.158-.888.283-.95l4.898-.696L7.538.792c.197-.39.73-.39.927 0l2.184 4.327 4.898.696c.441.062.612.636.283.95l-3.523 3.356.83 4.73c.078.443-.36.79-.746.592L8 13.187l-4.389 2.256z"/>
  </symbol>
  <symbol id="funnel-fill" viewBox="0 0 16 16">
    <path d="M2 3.5v-2h12v2l-4.5 5v5l-3 1v-6L2 3.5z"/>
    <path fill-rule="evenodd" d="M1.5 1.5A.5.5 0 012 1h12a.5.5 0 01.5.5v2a.5.5 0 01-.128.334L10 8.692V13.5a.5.5 0 01-.342.474l-3 1A.5.5 0 016 14.5V8.692L1.628 3.834A.5.5 0 011.5 3.5v-2zm1 .5v1.308l4.372 4.858A.5.5 0 017 8.5v5.306l2-.666V8.5a.5.5 0 01.128-.334L13.5 3.308V2h-11z" clip-rule="evenodd"/>
  </symbol>
</svg>
