<svg display="none">
  <symbol id="social-logo" viewBox="0 0 32 32">
    <path d="M15.996,0.007C7.162,0.007,0,7.168,0,16.004c0,6.551,3.938,12.177,9.575,14.65  c-0.045-1.118-0.008-2.459,0.278-3.672c0.308-1.301,2.058-8.719,2.058-8.719s-0.512-1.021-0.512-2.529  c0-2.369,1.376-4.14,3.087-4.14c1.454,0,2.157,1.091,2.157,2.4c0,1.462-0.934,3.65-1.412,5.676c-0.401,1.696,0.852,3.08,2.522,3.08  c3.031,0,5.072-3.891,5.072-8.504c0-3.505-2.361-6.128-6.655-6.128c-4.852,0-7.874,3.617-7.874,7.659  c0,1.394,0.411,2.377,1.054,3.138c0.297,0.35,0.338,0.489,0.229,0.891c-0.074,0.296-0.25,1.003-0.324,1.283  c-0.107,0.407-0.434,0.551-0.801,0.4c-2.235-0.91-3.275-3.358-3.275-6.11c0-4.543,3.831-9.993,11.433-9.993  c6.106,0,10.128,4.42,10.128,9.164c0,6.275-3.491,10.963-8.633,10.963c-1.728,0-3.353-0.934-3.907-1.992c0,0-0.93,3.686-1.125,4.396  c-0.34,1.231-1.004,2.466-1.61,3.427C12.901,31.769,14.421,32,15.996,32c8.834,0,15.995-7.16,15.995-15.996  S24.83,0.007,15.996,0.007z" fill="#CA2028"/>
  </symbol>
  <!-- 32x32 -->

  <symbol id="icon-wrench" viewBox="0 0 16 16">
    <path fill-rule="evenodd" d="M.102 2.223A3.004 3.004 0 003.78 5.897l6.341 6.252A3.003 3.003 0 0013 16a3 3 0 10-.851-5.878L5.897 3.781A3.004 3.004 0 002.223.1l2.141 2.142L4 4l-1.757.364L.102 2.223zm13.37 9.019L13 11l-.471.242-.529.026-.287.445-.445.287-.026.529L11 13l.242.471.026.529.445.287.287.445.529.026L13 15l.471-.242.529-.026.287-.445.445-.287.026-.529L15 13l-.242-.471-.026-.529-.445-.287-.287-.445-.529-.026z" clip-rule="evenodd"/>
  </symbol>
  <symbol id="icon-file-post" viewBox="0 0 16 16">
    <path fill-rule="evenodd" d="M4 1h8a2 2 0 012 2v10a2 2 0 01-2 2H4a2 2 0 01-2-2V3a2 2 0 012-2zm0 1a1 1 0 00-1 1v10a1 1 0 001 1h8a1 1 0 001-1V3a1 1 0 00-1-1H4z" clip-rule="evenodd"/>
    <path d="M4 5.5a.5.5 0 01.5-.5h7a.5.5 0 01.5.5v7a.5.5 0 01-.5.5h-7a.5.5 0 01-.5-.5v-7z"/>
    <path fill-rule="evenodd" d="M4 3.5a.5.5 0 01.5-.5h5a.5.5 0 010 1h-5a.5.5 0 01-.5-.5z" clip-rule="evenodd"/>
  </symbol>
  <symbol id="chat-square" viewBox="0 0 16 16">
    <path fill-rule="evenodd" d="M14 1H2a1 1 0 00-1 1v8a1 1 0 001 1h2.5a2 2 0 011.6.8L8 14.333 9.9 11.8a2 2 0 011.6-.8H14a1 1 0 001-1V2a1 1 0 00-1-1zM2 0a2 2 0 00-2 2v8a2 2 0 002 2h2.5a1 1 0 01.8.4l1.9 2.533a1 1 0 001.6 0l1.9-2.533a1 1 0 01.8-.4H14a2 2 0 002-2V2a2 2 0 00-2-2H2z" clip-rule="evenodd"/>
  </symbol>
  <symbol id="icon-files" viewBox="0 0 16 16">
    <path fill-rule="evenodd" d="M3 2h8a2 2 0 012 2v10a2 2 0 01-2 2H3a2 2 0 01-2-2V4a2 2 0 012-2zm0 1a1 1 0 00-1 1v10a1 1 0 001 1h8a1 1 0 001-1V4a1 1 0 00-1-1H3z" clip-rule="evenodd"/>
    <path d="M5 0h8a2 2 0 012 2v10a2 2 0 01-2 2v-1a1 1 0 001-1V2a1 1 0 00-1-1H5a1 1 0 00-1 1H3a2 2 0 012-2z"/>
  </symbol>
  <symbol id="icon-images" viewBox="0 0 16 16">
    <path fill-rule="evenodd" d="M12.002 4h-10a1 1 0 00-1 1v8a1 1 0 001 1h10a1 1 0 001-1V5a1 1 0 00-1-1zm-10-1a2 2 0 00-2 2v8a2 2 0 002 2h10a2 2 0 002-2V5a2 2 0 00-2-2h-10z" clip-rule="evenodd"/>
    <path d="M10.648 8.646a.5.5 0 01.577-.093l1.777 1.947V14h-12v-1l2.646-2.354a.5.5 0 01.63-.062l2.66 1.773 3.71-3.71z"/>
    <path fill-rule="evenodd" d="M4.502 9a1.5 1.5 0 100-3 1.5 1.5 0 000 3zM4 2h10a1 1 0 011 1v8a1 1 0 01-1 1v1a2 2 0 002-2V3a2 2 0 00-2-2H4a2 2 0 00-2 2h1a1 1 0 011-1z" clip-rule="evenodd"/>
  </symbol>
  <symbol id="card-checklist" viewBox="0 0 16 16">
    <path fill-rule="evenodd" d="M14.5 3h-13a.5.5 0 00-.5.5v9a.5.5 0 00.5.5h13a.5.5 0 00.5-.5v-9a.5.5 0 00-.5-.5zm-13-1A1.5 1.5 0 000 3.5v9A1.5 1.5 0 001.5 14h13a1.5 1.5 0 001.5-1.5v-9A1.5 1.5 0 0014.5 2h-13z" clip-rule="evenodd"/>
    <path fill-rule="evenodd" d="M7 5.5a.5.5 0 01.5-.5h5a.5.5 0 010 1h-5a.5.5 0 01-.5-.5zm-1.496-.854a.5.5 0 010 .708l-1.5 1.5a.5.5 0 01-.708 0l-.5-.5a.5.5 0 11.708-.708l.146.147 1.146-1.147a.5.5 0 01.708 0zM7 9.5a.5.5 0 01.5-.5h5a.5.5 0 010 1h-5a.5.5 0 01-.5-.5zm-1.496-.854a.5.5 0 010 .708l-1.5 1.5a.5.5 0 01-.708 0l-.5-.5a.5.5 0 01.708-.708l.146.147 1.146-1.147a.5.5 0 01.708 0z" clip-rule="evenodd"/>
  </symbol>
  <symbol id="graph-up" viewBox="0 0 16 16">
    <path d="M0 0h1v16H0V0zm1 15h15v1H1v-1z"/>
    <path fill-rule="evenodd" d="M14.39 4.312L10.041 9.75 7 6.707l-3.646 3.647-.708-.708L7 5.293 9.959 8.25l3.65-4.563.781.624z" clip-rule="evenodd"/>
    <path fill-rule="evenodd" d="M10 3.5a.5.5 0 01.5-.5h4a.5.5 0 01.5.5v4a.5.5 0 01-1 0V4h-3.5a.5.5 0 01-.5-.5z" clip-rule="evenodd"/>
  </symbol>
  <symbol id="house" viewBox="0 0 16 16">
    <path fill-rule="evenodd" d="M2 13.5V7h1v6.5a.5.5 0 00.5.5h9a.5.5 0 00.5-.5V7h1v6.5a1.5 1.5 0 01-1.5 1.5h-9A1.5 1.5 0 012 13.5zm11-11V6l-2-2V2.5a.5.5 0 01.5-.5h1a.5.5 0 01.5.5z" clip-rule="evenodd"/>
    <path fill-rule="evenodd" d="M7.293 1.5a1 1 0 011.414 0l6.647 6.646a.5.5 0 01-.708.708L8 2.207 1.354 8.854a.5.5 0 11-.708-.708L7.293 1.5z" clip-rule="evenodd"/>
  </symbol>
  <symbol id="gear" viewBox="0 0 16 16">
    <path fill-rule="evenodd" d="M8.837 1.626c-.246-.835-1.428-.835-1.674 0l-.094.319A1.873 1.873 0 014.377 3.06l-.292-.16c-.764-.415-1.6.42-1.184 1.185l.159.292a1.873 1.873 0 01-1.115 2.692l-.319.094c-.835.246-.835 1.428 0 1.674l.319.094a1.873 1.873 0 011.115 2.693l-.16.291c-.415.764.42 1.6 1.185 1.184l.292-.159a1.873 1.873 0 012.692 1.116l.094.318c.246.835 1.428.835 1.674 0l.094-.319a1.873 1.873 0 012.693-1.115l.291.16c.764.415 1.6-.42 1.184-1.185l-.159-.291a1.873 1.873 0 011.116-2.693l.318-.094c.835-.246.835-1.428 0-1.674l-.319-.094a1.873 1.873 0 01-1.115-2.692l.16-.292c.415-.764-.42-1.6-1.185-1.184l-.291.159A1.873 1.873 0 018.93 1.945l-.094-.319zm-2.633-.283c.527-1.79 3.065-1.79 3.592 0l.094.319a.873.873 0 001.255.52l.292-.16c1.64-.892 3.434.901 2.54 2.541l-.159.292a.873.873 0 00.52 1.255l.319.094c1.79.527 1.79 3.065 0 3.592l-.319.094a.873.873 0 00-.52 1.255l.16.292c.893 1.64-.902 3.434-2.541 2.54l-.292-.159a.873.873 0 00-1.255.52l-.094.319c-.527 1.79-3.065 1.79-3.592 0l-.094-.319a.873.873 0 00-1.255-.52l-.292.16c-1.64.893-3.433-.902-2.54-2.541l.159-.292a.873.873 0 00-.52-1.255l-.319-.094c-1.79-.527-1.79-3.065 0-3.592l.319-.094a.873.873 0 00.52-1.255l-.16-.292c-.892-1.64.902-3.433 2.541-2.54l.292.159a.873.873 0 001.255-.52l.094-.319z" clip-rule="evenodd"/>
    <path fill-rule="evenodd" d="M8 5.754a2.246 2.246 0 100 4.492 2.246 2.246 0 000-4.492zM4.754 8a3.246 3.246 0 116.492 0 3.246 3.246 0 01-6.492 0z" clip-rule="evenodd"/>
  </symbol>
</svg>
